# xmcd CD database file
# Copyright (C) 1993-1998 Ti Kan
#
# Track frame offsets:
#	150
#	18440
#	30399
#	46548
#	66629
#	80760
#	102374
#	121429
#	152174
#	171190
#	189803
#	200923
#	211421
#	232252
#	249110
#	265514
#
# Disc length: 3800 seconds
#
# Revision: 0
# Processed by: cddbd v1.4b41PL1 Copyright (c) Steve Scherf et al.
# Submitted via: CDmax 1.5.4
#
DISCID=d80ed610
DTITLE=Kenny "Blues Boss" Wayne - Blues Boss Boogie
DYEAR=1900
DGENRE=
TTITLE0=Let's Do the Shag
TTITLE1=Coat and Hat
TTITLE2=Thin Line
TTITLE3=You're A Hit
TTITLE4=Burrard St. Boogie
TTITLE5=When Your Memory Goes Away
TTITLE6=Apple of My Eye
TTITLE7=True Blue
TTITLE8=Potential Danger
TTITLE9=Won't Be Me
TTITLE10=Portland Al's
TTITLE11=Blues Boss Boogie
TTITLE12=Kitsilano Stomp
TTITLE13=Don't Be Mad
TTITLE14=Pig Feet
TTITLE15=West Coast Blues
EXTD=
EXTT0=
EXTT1=
EXTT2=
EXTT3=
EXTT4=
EXTT5=
EXTT6=
EXTT7=
EXTT8=
EXTT9=
EXTT10=
EXTT11=
EXTT12=
EXTT13=
EXTT14=
EXTT15=
PLAYORDER=
